<svg width="96" height="96" xmlns="http://www.w3.org/2000/svg" xmlns:xlink="http://www.w3.org/1999/xlink" overflow="hidden"><defs><clipPath id="clip0"><rect x="0" y="0" width="96" height="96"/></clipPath></defs><g clip-path="url(#clip0)"><path d="M84.527 11.476C78.075 5.025 68.719 11.927 56.699 23.621 60.9311 22.1571 65.2493 20.9548 69.629 20.021 70.7095 19.7907 71.7722 20.48 72.0025 21.5605 72.2328 22.641 71.5435 23.7037 70.463 23.934 63.2411 25.4648 56.2064 27.7736 49.482 30.82 46.534 33.81 43.454 36.958 40.241 40.171 39.5023 40.9097 38.769 41.641 38.041 42.365 42.7232 40.6716 47.5161 39.3017 52.386 38.265 53.4647 38.0276 54.5317 38.7096 54.7692 39.7883 55.0066 40.8671 54.3246 41.934 53.2459 42.1715 53.2373 42.1734 53.2286 42.1752 53.22 42.177 45.3105 43.8487 37.6293 46.4603 30.34 49.956 26.54 53.707 23.012 57.241 19.969 60.546 24.596 58.8825 29.3306 57.5347 34.14 56.512 35.2218 56.2888 36.2797 56.9849 36.5028 58.0667 36.7239 59.1384 36.0427 60.1888 34.974 60.424 27.889 61.9264 20.9836 64.177 14.374 67.138 8.986 74.231 7.114 80.031 11.543 84.46 20.692 93.61 35.675 75.916 55.829 55.76 75.983 35.604 93.676 20.625 84.527 11.476Z"/></g></svg>