<svg xmlns="http://www.w3.org/2000/svg" viewBox="0 0 23.24 6.88"><defs><style>.a{fill:#f2cfa0;}.b{fill:none;stroke:#f7a92c;stroke-linecap:round;stroke-miterlimit:10;}</style></defs><ellipse class="a" cx="16.51" cy="3.56" rx="6.73" ry="3.24"/><ellipse class="a" cx="6.73" cy="3.56" rx="6.73" ry="3.24"/><ellipse class="a" cx="11.66" cy="2.89" rx="6.13" ry="2.89"/><path class="a" d="M.7,2.89H22.4a.81.81,0,0,1,.81.81V5.89a1,1,0,0,1-1,1H1a1,1,0,0,1-1-1V3.57A.68.68,0,0,1,.7,2.89Z"/><path class="b" d="M16.08,452.61a3.37,3.37,0,0,0-.91.63,3.73,3.73,0,0,0-.66.9" transform="translate(-7.79 -451.65)"/><path class="b" d="M22.42,452.56a3.39,3.39,0,0,0-.9.63,4.08,4.08,0,0,0-.67.91" transform="translate(-7.79 -451.65)"/></svg>