<svg width="96" height="96" xmlns="http://www.w3.org/2000/svg" xmlns:xlink="http://www.w3.org/1999/xlink" overflow="hidden"><defs><clipPath id="clip0"><rect x="0" y="0" width="96" height="96"/></clipPath></defs><g clip-path="url(#clip0)"><path d="M10.683 38.791C10.2925 38.4006 9.6595 38.4006 9.269 38.791L9.161 38.973 9.121 38.967C9.02123 39.1261 8.96886 39.3102 8.97 39.498 8.97138 39.7649 9.07939 40.0202 9.27 40.207L11.27 42.207C11.6607 42.5975 12.294 42.5972 12.6845 42.2065 13.075 41.8158 13.0747 41.1825 12.684 40.792Z"/><path d="M92.005 40.516C92.036 24.7689 79.2961 11.978 63.549 11.946L63.49 11.946C57.9945 11.9396 52.6153 13.5282 48.005 16.519 34.7831 7.96573 17.1308 11.7504 8.57755 24.9723 5.58181 29.6032 3.99347 35.0036 4.005 40.519L4.005 42.054C4.14676 52.2946 8.17418 62.0988 15.272 69.482L14.534 70.221C11.7785 72.9327 11.743 77.3647 14.4547 80.1202 15.757 81.4434 17.5315 82.1952 19.388 82.21L19.445 82.21C21.2823 82.2149 23.0469 81.4922 24.353 80.2L26.321 78.232C39.7281 86.02 56.2819 86.02 69.689 78.232L71.075 79.613C73.8375 82.3176 78.2694 82.2707 80.9739 79.5082 83.6404 76.7847 83.6378 72.4283 80.968 69.708L80.738 69.478C87.8362 62.0967 91.8637 52.2935 92.005 42.054ZM6.005 42.054 6.005 40.517C5.97342 25.8743 17.8181 13.9785 32.4608 13.9469 37.8014 13.9354 43.021 15.537 47.436 18.542 50.4575 20.8837 53.1086 23.6677 55.3 26.8L55.519 27.173C57.2514 30.1093 58.3897 33.3576 58.869 36.733 59.2662 39.761 58.3907 42.8182 56.451 45.177 53.7085 42.1583 51.2062 38.9298 48.967 35.521 45.783 30.929 43.028 26.961 40.067 25.767 37.7326 24.5723 35.1483 23.9479 32.526 23.945L32.48 23.945C23.3586 23.9819 15.9884 31.3955 16.005 40.517L16.005 42.054C16.005 48.539 18.84 55.375 23.805 60.954L16.7 68.059C9.8 60.616 6.005 51.423 6.005 42.054ZM70.8 59.538 57.875 46.614C60.2567 43.8008 61.3384 40.1119 60.853 36.458 60.389 33.1866 59.3496 30.0231 57.783 27.114 65.1613 23.9671 73.6937 27.3972 76.8407 34.7755 77.6143 36.5895 78.0105 38.542 78.005 40.514L78.005 42.054C78.005 48.021 75.389 54.34 70.8 59.538ZM38.137 46.62 25.215 59.542C20.621 54.342 18.005 48.021 18.005 42.054L18.005 40.511C17.9911 32.494 24.4691 25.9785 32.486 25.946L32.528 25.946C34.487 25.9478 36.4256 26.3444 38.228 27.112 36.6616 30.0249 35.622 33.1915 35.157 36.466 34.673 40.1195 35.7554 43.8075 38.137 46.62ZM39.521 48.063 46.591 55.132 33.291 68.432 33.291 68.432 25.455 76.27 25.455 76.27 22.955 78.77C20.9853 80.7055 17.8195 80.6777 15.884 78.708 13.9485 76.7383 13.9763 73.5725 15.946 71.637ZM59.267 67.808C52.0576 70.8027 43.9524 70.8027 36.743 67.808L48.005 56.546ZM27.805 76.748 35.229 69.322C39.2498 71.1107 43.5994 72.0411 48 72.054L48 72.054C52.402 72.0416 56.753 71.1111 60.775 69.322L68.199 76.748C55.661 83.8127 40.343 83.8127 27.805 76.748ZM79.548 71.117C81.451 73.0674 81.451 76.1796 79.548 78.13 78.6197 79.0781 77.3509 79.6157 76.024 79.623L75.982 79.623C74.6722 79.6264 73.4142 79.1121 72.482 78.192L70.555 76.271 70.555 76.271 62.715 68.43 62.715 68.43 48.005 53.718 48.005 53.718 40.23 45.944C37.8334 43.5196 36.6917 40.1238 37.137 36.744 37.5753 33.6774 38.5574 30.7136 40.037 27.992 42.263 29.362 44.731 32.917 47.33 36.664 49.6459 40.1914 52.2409 43.5274 55.09 46.64ZM90.005 42.054C90.005 51.423 86.205 60.615 79.315 68.054L72.208 60.948C77.17 55.372 80.008 48.538 80.008 42.053L80.008 40.517C80.0123 37.8743 79.3856 35.2687 78.18 32.917 74.1773 25.1183 64.7716 21.8157 56.772 25.4 54.7546 22.5876 52.3978 20.035 49.755 17.8 53.8925 15.2783 58.6446 13.9448 63.49 13.946L63.545 13.946C78.1877 13.9752 90.0342 25.8692 90.005 40.5119 90.005 40.5126 90.005 40.5133 90.005 40.514Z"/><path d="M83.66 44.5C83.9254 44.5007 84.1799 44.3952 84.367 44.207L86.367 42.207C86.7577 41.8165 86.758 41.1832 86.3675 40.7925 85.977 40.4018 85.3437 40.4015 84.953 40.792L82.953 42.792C82.562 43.182 82.5612 43.8152 82.9512 44.2062 83.139 44.3945 83.3941 44.5002 83.66 44.5Z"/><path d="M75.983 21.238C75.5923 20.8475 74.959 20.8478 74.5685 21.2385 74.178 21.6292 74.1783 22.2625 74.569 22.653L76.569 24.653C76.96 25.0435 77.5935 25.043 77.984 24.652 78.3745 24.261 78.374 23.6275 77.983 23.237Z"/><path d="M21.084 23.72 21.084 23.72C21.3492 23.7199 21.6035 23.6145 21.791 23.427L23.791 21.427C24.1817 21.0365 24.182 20.4032 23.7915 20.0125 23.401 19.6218 22.7677 19.6215 22.377 20.012L20.377 22.012C19.9865 22.4026 19.9866 23.0357 20.3772 23.4262 20.5644 23.6134 20.8183 23.7187 21.083 23.719Z"/></g></svg>