<svg width="96" height="96" xmlns="http://www.w3.org/2000/svg" xmlns:xlink="http://www.w3.org/1999/xlink" overflow="hidden"><defs><clipPath id="clip0"><rect x="0" y="0" width="96" height="96"/></clipPath></defs><g clip-path="url(#clip0)"><path d="M5 42.054C5 52.385 9.5 62.113 16.664 69.5L15.23 70.934C12.8681 73.2583 12.8376 77.0571 15.1619 79.419 17.4862 81.7809 21.285 81.8114 23.6469 79.4871 23.6701 79.4643 23.6932 79.4412 23.716 79.418L26.157 76.977C39.5917 85.0804 56.4083 85.0804 69.843 76.977L71.771 78.9C74.1332 81.224 77.932 81.193 80.256 78.8309 82.5533 76.4959 82.5533 72.75 80.256 70.415L79.337 69.496C86.5 62.112 91 52.385 91 42.054L91 40.514C91.0303 25.319 78.7368 12.9765 63.5419 12.9462 57.9987 12.9352 52.5815 14.5988 48 17.719 35.4409 9.16573 18.326 12.4131 9.77275 24.9721 6.65156 29.5551 4.98795 34.9742 5 40.519ZM64.439 18.439C65.0246 17.853 65.9743 17.8527 66.5603 18.4383 66.5606 18.4385 66.5608 18.4388 66.561 18.439L68.561 20.439C69.147 21.025 69.147 21.975 68.561 22.561 67.975 23.147 67.025 23.147 66.439 22.561L64.439 20.561C63.853 19.9754 63.8527 19.0257 64.4383 18.4397 64.4386 18.4395 64.4388 18.4392 64.439 18.439ZM50.439 32.439C51.0246 31.853 51.9743 31.8527 52.5603 32.4383 52.5605 32.4385 52.5608 32.4388 52.561 32.439L54.561 34.439C55.147 35.025 55.147 35.975 54.561 36.561 53.975 37.147 53.025 37.147 52.439 36.561L50.439 34.561C49.853 33.9754 49.8527 33.0257 50.4383 32.4397 50.4385 32.4395 50.4388 32.4392 50.439 32.439ZM48.561 44.439C49.147 45.025 49.147 45.975 48.561 46.561 47.975 47.147 47.025 47.147 46.439 46.561L44.439 44.561C43.853 43.975 43.853 43.025 44.439 42.439 45.025 41.853 45.975 41.853 46.561 42.439ZM42.439 23.439 44.439 21.439C45.025 20.853 45.975 20.853 46.561 21.439 47.147 22.025 47.147 22.975 46.561 23.561L44.561 25.561C43.975 26.147 43.025 26.147 42.439 25.561 41.853 24.975 41.853 24.025 42.439 23.439ZM20.439 19.439C21.0246 18.853 21.9743 18.8527 22.5603 19.4383 22.5605 19.4385 22.5608 19.4388 22.561 19.439L24.561 21.439C25.147 22.025 25.147 22.975 24.561 23.561 23.975 24.147 23.025 24.147 22.439 23.561L20.439 21.561C19.853 20.9754 19.8527 20.0257 20.4383 19.4397 20.4385 19.4395 20.4388 19.4392 20.439 19.439ZM11.5 43C10.6716 43.0004 9.9997 42.3291 9.99932 41.5007 9.99914 41.1025 10.1573 40.7205 10.439 40.439L12.439 38.439C13.025 37.853 13.975 37.853 14.561 38.439 15.147 39.025 15.147 39.975 14.561 40.561L12.561 42.561C12.2796 42.8423 11.8979 43.0002 11.5 43ZM18.561 60.561C17.9754 61.147 17.0257 61.1473 16.4397 60.5617 16.4395 60.5615 16.4392 60.5612 16.439 60.561L14.439 58.561C13.853 57.975 13.853 57.025 14.439 56.439 15.025 55.853 15.975 55.853 16.561 56.439L18.561 58.439C19.147 59.0246 19.1473 59.9743 18.5617 60.5603 18.5615 60.5605 18.5612 60.5608 18.561 60.561ZM17 40.514C16.9752 31.9409 23.905 24.971 32.478 24.9462 34.9622 24.939 37.4118 25.5281 39.621 26.664 37.8249 29.7176 36.6431 33.0929 36.142 36.6 35.6414 40.2924 36.8891 44.0073 39.517 46.649L25.177 60.989C20.052 55.545 17 48.615 17 42.054ZM35.561 60.561 33.561 62.561C32.975 63.147 32.025 63.147 31.439 62.561 30.853 61.975 30.853 61.025 31.439 60.439L33.439 58.439C34.025 57.853 34.975 57.853 35.561 58.439 36.147 59.025 36.147 59.975 35.561 60.561ZM34.561 72.561 32.561 74.561C31.975 75.147 31.025 75.147 30.439 74.561 29.853 73.975 29.853 73.025 30.439 72.439L32.439 70.439C33.025 69.853 33.975 69.853 34.561 70.439 35.147 71.025 35.147 71.975 34.561 72.561ZM54.561 78.561C53.9754 79.147 53.0257 79.1473 52.4397 78.5617 52.4395 78.5614 52.4392 78.5612 52.439 78.561L50.439 76.561C49.853 75.975 49.853 75.025 50.439 74.439 51.025 73.853 51.975 73.853 52.561 74.439L54.561 76.439C55.147 77.0246 55.1473 77.9743 54.5617 78.5603 54.5615 78.5606 54.5612 78.5608 54.561 78.561ZM48 71.054C43.5041 71.0517 39.0645 70.0538 35 68.132L48 55.132 61 68.132C56.9355 70.0538 52.4959 71.0517 48 71.054ZM62.561 59.561C61.9754 60.147 61.0257 60.1473 60.4397 59.5617 60.4395 59.5615 60.4392 59.5612 60.439 59.561L58.439 57.561C57.853 56.975 57.853 56.025 58.439 55.439 59.025 54.853 59.975 54.853 60.561 55.439L62.561 57.439C63.147 58.0246 63.1473 58.9743 62.5617 59.5603 62.5615 59.5605 62.5612 59.5608 62.561 59.561ZM73.561 70.561 71.561 72.561C70.975 73.147 70.025 73.147 69.439 72.561 68.853 71.975 68.853 71.025 69.439 70.439L71.439 68.439C72.025 67.853 72.975 67.853 73.561 68.439 74.147 69.025 74.147 69.975 73.561 70.561ZM79 42.054C79 48.615 75.949 55.543 70.824 60.985L56.485 46.644C59.1111 44.0033 60.3579 40.2905 59.858 36.6 59.357 33.094 58.1755 29.7197 56.38 26.667 64.0037 22.7469 73.3619 25.7492 77.282 33.3729 78.4177 35.5816 79.0069 38.0305 79 40.514ZM85.561 53.561C84.9754 54.147 84.0257 54.1473 83.4397 53.5617 83.4394 53.5615 83.4392 53.5612 83.439 53.561L81.439 51.561C80.853 50.975 80.853 50.025 81.439 49.439 82.025 48.853 82.975 48.853 83.561 49.439L85.561 51.439C86.147 52.0246 86.1473 52.9743 85.5617 53.5603 85.5614 53.5605 85.5612 53.5608 85.561 53.561ZM85.561 32.561 83.561 34.561C82.975 35.147 82.025 35.147 81.439 34.561 80.853 33.975 80.853 33.025 81.439 32.439L83.439 30.439C84.025 29.853 84.975 29.853 85.561 30.439 86.147 31.025 86.147 31.975 85.561 32.561Z"/></g></svg>